<?xml version="1.0" encoding="UTF-8"?>
<svg id="Layer_1" data-name="Layer 1" xmlns="http://www.w3.org/2000/svg" version="1.1" viewBox="0 0 45.7 45.2">
  <defs>
    <style>
      .cls-1 {
        fill: #fff;
        stroke-width: 0px;
      }
    </style>
  </defs>
  <path class="cls-1" d="M41.9,34.1c-4,0-7.6-4-9.5-6.4-1.9,2.4-5.6,6.4-9.5,6.4s-7.6-4-9.5-6.4c-1.8,2.4-5.4,6.4-9.4,6.4s-1.5-.7-1.5-1.5h0c0-.9.7-1.5,1.5-1.5,3.2,0,7.1-5.1,8.2-6.9.3-.4.8-.7,1.3-.7s1,.2,1.3.7c1.1,1.8,5,6.9,8.2,6.9s7.1-5.1,8.2-6.9c.3-.4.8-.7,1.3-.7s1,.2,1.3.7c1.1,1.8,5,6.9,8.2,6.9s1.5.7,1.5,1.5-.5,1.5-1.4,1.5h-.2Z"/>
  <path class="cls-1" d="M41.9,42.8c-4,0-7.6-4-9.5-6.4-1.9,2.4-5.6,6.4-9.5,6.4s-7.6-4-9.5-6.4c-1.8,2.4-5.4,6.4-9.4,6.4s-1.5-.7-1.5-1.5h0c0-.9.7-1.5,1.5-1.5,3.2,0,7.1-5.1,8.2-6.9.3-.4.8-.7,1.3-.7s1,.2,1.3.7c1.1,1.8,5,6.9,8.2,6.9s7.1-5.1,8.2-6.9c.3-.4.8-.7,1.3-.7s1,.2,1.3.7c1.1,1.8,5,6.9,8.2,6.9s1.5.7,1.5,1.5-.5,1.5-1.4,1.5h-.2ZM5,27.2c-.7,0-1.3-.5-1.5-1.2-.2-1.2-.3-2.4-.3-3.6C3.1,11.4,12,2.5,22.9,2.5s19.8,8.9,19.8,19.8,0,2.4-.3,3.6c0,.8-.8,1.4-1.6,1.2h0c-.9-.1-1.4-.9-1.2-1.8.2-1,.2-2,.2-3,0-9.2-7.5-16.8-16.7-16.8S6.2,13,6.2,22.3s0,2.1.3,3.1c0,.9-.4,1.7-1.2,1.8,0,0-.3,0-.3,0Z"/>
</svg>